<svg width="52" height="52" viewBox="0 0 52 52" fill="none" xmlns="http://www.w3.org/2000/svg">
<path d="M10.0619 40.1126C12.3285 38.4306 14.7977 37.1024 17.4695 36.128C20.1413 35.1537 22.9849 34.6665 26.0003 34.6665C29.0156 34.6665 31.8592 35.1537 34.531 36.128C37.2028 37.1024 39.672 38.4306 41.9387 40.1126C43.5968 38.2904 44.9105 36.181 45.8797 33.7844C46.849 31.3878 47.3336 28.7929 47.3336 25.9998C47.3336 20.0887 45.2558 15.0553 41.1003 10.8998C36.9447 6.74422 31.9114 4.66644 26.0003 4.66644C20.0891 4.66644 15.0558 6.74422 10.9003 10.8998C6.7447 15.0553 4.66693 20.0887 4.66693 25.9998C4.66693 28.7929 5.15155 31.3878 6.12079 33.7844C7.09004 36.181 8.40373 38.2904 10.0619 40.1126ZM26.0011 27.9997C23.5663 27.9997 21.5131 27.1641 19.8413 25.4928C18.1695 23.8216 17.3337 21.7686 17.3337 19.3339C17.3337 16.8992 18.1693 14.846 19.8405 13.1742C21.5118 11.5024 23.5648 10.6665 25.9995 10.6665C28.4342 10.6665 30.4874 11.5021 32.1592 13.1734C33.831 14.8447 34.6669 16.8976 34.6669 19.3323C34.6669 21.767 33.8312 23.8203 32.16 25.492C30.4887 27.1638 28.4357 27.9997 26.0011 27.9997ZM26.0003 51.333C22.4823 51.333 19.1823 50.6715 16.1003 49.3484C13.0183 48.0253 10.3371 46.2236 8.05673 43.9433C5.77641 41.6629 3.97473 38.9818 2.65166 35.8997C1.32855 32.8177 0.666992 29.5177 0.666992 25.9998C0.666992 22.4818 1.32855 19.1818 2.65166 16.0998C3.97473 13.0178 5.77641 10.3366 8.05673 8.05624C10.3371 5.77593 13.0183 3.97424 16.1003 2.65117C19.1823 1.32806 22.4823 0.666504 26.0003 0.666504C29.5182 0.666504 32.8182 1.32806 35.9002 2.65117C38.9822 3.97424 41.6634 5.77593 43.9438 8.05624C46.2241 10.3366 48.0258 13.0178 49.3489 16.0998C50.672 19.1818 51.3335 22.4818 51.3335 25.9998C51.3335 29.5177 50.672 32.8177 49.3489 35.8997C48.0258 38.9818 46.2241 41.6629 43.9438 43.9433C41.6634 46.2236 38.9822 48.0253 35.9002 49.3484C32.8182 50.6715 29.5182 51.333 26.0003 51.333ZM26.0003 47.3331C28.4071 47.3331 30.7276 46.9459 32.9618 46.1716C35.196 45.3972 37.1798 44.3143 38.9131 42.9228C37.1798 41.5827 35.2217 40.5382 33.0387 39.7895C30.8558 39.0408 28.5097 38.6664 26.0003 38.6664C23.4908 38.6664 21.1404 39.0365 18.9489 39.7766C16.7575 40.5168 14.8036 41.5656 13.0874 42.9228C14.8207 44.3143 16.8045 45.3972 19.0387 46.1716C21.2729 46.9459 23.5934 47.3331 26.0003 47.3331ZM26.0003 23.9998C27.3267 23.9998 28.4362 23.5537 29.3285 22.6614C30.2208 21.769 30.667 20.6596 30.667 19.3331C30.667 18.0066 30.2208 16.8972 29.3285 16.0048C28.4362 15.1125 27.3267 14.6664 26.0003 14.6664C24.6738 14.6664 23.5643 15.1125 22.672 16.0048C21.7797 16.8972 21.3335 18.0066 21.3335 19.3331C21.3335 20.6596 21.7797 21.769 22.672 22.6614C23.5643 23.5537 24.6738 23.9998 26.0003 23.9998Z" fill="#33189F"/>
</svg>
