<svg width="18" height="17" viewBox="0 0 18 17" fill="none" xmlns="http://www.w3.org/2000/svg">
<path d="M12.416 9.08333L11.2077 7.875C11.3605 7.13889 11.1695 6.51042 10.6348 5.98958C10.1 5.46875 9.45768 5.26389 8.70768 5.375L7.49935 4.16667C7.73546 4.05556 7.97852 3.97222 8.22852 3.91667C8.47852 3.86111 8.73546 3.83333 8.99935 3.83333C10.041 3.83333 10.9264 4.19792 11.6556 4.92708C12.3848 5.65625 12.7493 6.54167 12.7493 7.58333C12.7493 7.84722 12.7216 8.10417 12.666 8.35417C12.6105 8.60417 12.5271 8.84722 12.416 9.08333ZM15.0827 11.7083L13.8743 10.5417C14.4021 10.1389 14.8743 9.69097 15.291 9.19792C15.7077 8.70486 16.0549 8.16667 16.3327 7.58333C15.6382 6.18056 14.6348 5.06597 13.3223 4.23958C12.0098 3.41319 10.5688 3 8.99935 3C8.59657 3 8.20421 3.02778 7.82227 3.08333C7.44032 3.13889 7.0549 3.22222 6.66602 3.33333L5.37435 2.04167C5.95768 1.80556 6.55143 1.62847 7.1556 1.51042C7.75977 1.39236 8.37435 1.33333 8.99935 1.33333C10.9021 1.33333 12.6417 1.83333 14.2181 2.83333C15.7945 3.83333 16.9993 5.18056 17.8327 6.875C17.8882 6.98611 17.9299 7.1007 17.9577 7.21875C17.9855 7.33681 17.9993 7.45833 17.9993 7.58333C17.9993 7.70833 17.9889 7.82986 17.9681 7.94792C17.9473 8.06597 17.9091 8.18056 17.8535 8.29167C17.548 8.97222 17.1591 9.6007 16.6868 10.1771C16.2146 10.7535 15.6799 11.2639 15.0827 11.7083ZM8.99935 13.8333C7.13824 13.8333 5.43685 13.3299 3.89518 12.3229C2.35352 11.316 1.13824 9.99306 0.249349 8.35417C0.179905 8.24306 0.127821 8.12153 0.093099 7.98958C0.0583767 7.85764 0.0410156 7.72222 0.0410156 7.58333C0.0410156 7.44445 0.0549045 7.3125 0.0826823 7.1875C0.11046 7.0625 0.159071 6.9375 0.228516 6.8125C0.506293 6.25695 0.82921 5.7257 1.19727 5.21875C1.56532 4.71181 1.98546 4.25 2.45768 3.83333L0.728516 2.08333C0.575738 1.91667 0.502821 1.71875 0.509766 1.48958C0.51671 1.26042 0.596571 1.06944 0.749349 0.916667C0.902127 0.763889 1.09657 0.6875 1.33268 0.6875C1.56879 0.6875 1.76324 0.763889 1.91602 0.916667L16.0827 15.0833C16.2355 15.2361 16.3153 15.4271 16.3223 15.6563C16.3292 15.8854 16.2493 16.0833 16.0827 16.25C15.9299 16.4028 15.7355 16.4792 15.4993 16.4792C15.2632 16.4792 15.0688 16.4028 14.916 16.25L11.9993 13.375C11.5132 13.5278 11.0202 13.6424 10.5202 13.7188C10.0202 13.7951 9.51324 13.8333 8.99935 13.8333ZM3.62435 5C3.22157 5.36111 2.85352 5.75695 2.52018 6.1875C2.18685 6.61806 1.90213 7.08333 1.66602 7.58333C2.36046 8.98611 3.36393 10.1007 4.67643 10.9271C5.98893 11.7535 7.4299 12.1667 8.99935 12.1667C9.27713 12.1667 9.54796 12.1493 9.81185 12.1146C10.0757 12.0799 10.3466 12.0417 10.6243 12L9.87435 11.2083C9.72157 11.25 9.57574 11.2813 9.43685 11.3021C9.29796 11.3229 9.15213 11.3333 8.99935 11.3333C7.95768 11.3333 7.07227 10.9688 6.3431 10.2396C5.61393 9.51042 5.24935 8.625 5.24935 7.58333C5.24935 7.43056 5.25977 7.28472 5.2806 7.14583C5.30143 7.00695 5.33268 6.86111 5.37435 6.70833L3.62435 5Z" fill="#6C6969"/>
</svg>
