<svg width="110" height="80" viewBox="0 0 110 80" fill="none" xmlns="http://www.w3.org/2000/svg">
<path d="M25.6917 61.8086L39.1304 79.9993H0L3.55731 72.3709L25.6917 61.8086Z" fill="#95CCEC"/>
<path d="M45.8507 43.4219L9.0918 61.0258L17.1946 43.4219H45.8507Z" fill="#CDCCCC"/>
<path d="M98.2209 56.9182L63.043 79.9989H49.2091L33.2012 58.2874L64.6241 43.4219H91.8968L98.2209 56.9182Z" fill="#99C863"/>
<path d="M109.091 79.9995H77.668L101.581 64.3516L109.091 79.9995Z" fill="#EC7B72"/>
<path d="M33.2009 58.2874L49.2088 79.9989H39.1297L25.691 61.8082L3.55664 72.3705L9.09023 61.0258L45.8491 43.4219H64.6238L33.2009 58.2874Z" fill="#E6E6E5"/>
<path d="M101.58 64.3527L77.6675 80.0006H63.043L98.2208 56.9199L101.58 64.3527Z" fill="#E6E6E5"/>
<path d="M55.5522 0C44.0407 0 34.707 9.23782 34.707 20.6311C34.707 30.0229 48.7075 45.8812 53.841 51.2699C54.7744 52.3477 56.33 52.3477 57.4189 51.2699C62.3969 45.8812 76.553 30.0229 76.553 20.6311C76.3974 9.23782 67.0637 0 55.5522 0ZM55.5522 29.2531C50.7298 29.2531 46.8408 25.404 46.8408 20.6311C46.8408 15.8583 50.7298 12.0092 55.5522 12.0092C60.3746 12.0092 64.2636 15.8583 64.2636 20.6311C64.4192 25.404 60.3746 29.2531 55.5522 29.2531Z" fill="#33189F"/>
<path d="M59.8207 19.1445H56.5239V15.8438H54.3261V19.1445H51.0293V21.345H54.3261V24.6457H56.5239V21.345H59.8207V19.1445Z" fill="#E14124"/>
</svg>
