<svg width="113" height="80" viewBox="0 0 113 80" fill="none" xmlns="http://www.w3.org/2000/svg">
<path d="M56.0307 80C54.2842 80 52.5347 79.5865 50.9716 78.8043C46.2478 76.4403 37.0229 71.3708 28.321 63.9806C17.0008 54.3668 10.2911 44.0477 8.37799 33.3099C6.892 24.9685 9.01365 16.4531 14.1987 9.9471C19.0007 3.92184 25.8054 0.400996 33.3592 0.0327393C33.8033 0.0109866 34.2535 0 34.6965 0C41.7738 0 48.4549 2.72743 53.509 7.68021C54.4219 8.57493 55.2637 9.52413 56.0303 10.5204C56.7974 9.52392 57.6389 8.57449 58.5518 7.68C63.6059 2.72765 70.2873 0.000219603 77.3648 0.000219603C77.8077 0.000219603 78.258 0.0112062 78.702 0.0329589C86.2559 0.401215 93.0607 3.92206 97.8628 9.94776C103.048 16.4536 105.169 24.9689 103.683 33.3103C101.77 44.048 95.0602 54.3673 83.7401 63.9808C75.0384 71.3708 65.8139 76.4403 61.0894 78.8045C59.5268 79.5867 57.7773 80 56.0307 80Z" fill="url(#paint0_linear_1228_19612)"/>
<path d="M39.706 56.1151C39.6344 56.1151 39.563 56.1142 39.4909 56.112C36.3776 56.0235 33.7937 54.0369 32.9082 51.0509L27.2191 31.8673C27.1895 31.7671 27.1681 31.6948 26.9882 31.69C26.8016 31.6834 26.7828 31.7565 26.7478 31.855L24.0938 39.3385C23.0945 42.1563 20.4143 44.0494 17.4249 44.0494H3.41406C1.52862 44.0494 0 42.5208 0 40.6353C0 38.7499 1.52862 37.2213 3.41406 37.2213H17.4247C17.5293 37.2213 17.6234 37.1549 17.6583 37.0561L20.3123 29.5725C21.3558 26.6304 24.0518 24.7858 27.1673 24.8643C30.2878 24.9462 32.8777 26.9332 33.7653 29.9258L39.4544 49.1094C39.4841 49.2094 39.5054 49.2817 39.6851 49.2867C39.8633 49.287 39.8901 49.221 39.9255 49.1228L44.8983 35.2932C45.8923 32.5287 48.4323 30.692 51.3691 30.614C54.3086 30.5364 56.9398 32.2355 58.0791 34.9434L58.0991 34.9911C58.1366 35.081 58.1685 35.1497 58.3438 35.1363C58.522 35.1227 58.5405 35.05 58.5655 34.9491L62.1435 20.6563C62.9244 17.5365 65.6094 15.3843 68.8249 15.3012C72.0324 15.2195 74.8325 17.2286 75.7736 20.3039L82.1999 41.298C82.2258 41.3818 82.25 41.4611 82.4202 41.4727C82.5919 41.4844 82.6252 41.4088 82.6622 41.3295C83.8155 38.8338 86.3368 37.2217 89.0853 37.2217H108.643C110.528 37.2217 112.057 38.7503 112.057 40.6358C112.057 42.5212 110.528 44.0498 108.643 44.0498H89.0853C88.9891 44.0498 88.9008 44.1063 88.8601 44.194C87.6189 46.8799 84.9062 48.4839 81.9571 48.285C79.0044 48.0842 76.5371 46.1262 75.671 43.2966L69.2443 22.3023C69.2085 22.1863 69.1984 22.1254 69.0009 22.1269C68.8126 22.1318 68.7963 22.1966 68.7668 22.3146L65.1889 36.6076C64.4361 39.6132 61.9541 41.7078 58.865 41.9445C55.7777 42.1822 53.0039 40.4888 51.8024 37.6333L51.7824 37.5856C51.7512 37.5111 51.7187 37.4349 51.5498 37.4397C51.3804 37.4443 51.3524 37.5216 51.323 37.6036L46.3502 51.4332C45.321 54.2962 42.7274 56.1151 39.706 56.1151Z" fill="#FFB42A"/>
<defs>
<linearGradient id="paint0_linear_1228_19612" x1="48.0928" y1="19.4229" x2="81.7314" y2="61.4237" gradientUnits="userSpaceOnUse">
<stop stop-color="#FF7044"/>
<stop offset="1" stop-color="#F82814"/>
</linearGradient>
</defs>
</svg>
