<svg width="48" height="48" viewBox="0 0 48 48" fill="none" xmlns="http://www.w3.org/2000/svg">
<path d="M9.05769 37.2308C11.1827 35.6538 13.4976 34.4086 16.0024 33.4952C18.5072 32.5817 21.173 32.125 23.9999 32.125C26.8269 32.125 29.4927 32.5817 31.9975 33.4952C34.5023 34.4086 36.8172 35.6538 38.9422 37.2308C40.4967 35.5224 41.7283 33.5449 42.6369 31.2981C43.5456 29.0512 43.9999 26.6185 43.9999 23.9999C43.9999 18.4583 42.052 13.7395 38.1562 9.84369C34.2604 5.94786 29.5416 3.99994 23.9999 3.99994C18.4583 3.99994 13.7395 5.94786 9.84369 9.84369C5.94785 13.7395 3.99994 18.4583 3.99994 23.9999C3.99994 26.6185 4.45427 29.0512 5.36294 31.2981C6.2716 33.5449 7.50319 35.5224 9.05769 37.2308ZM24.0007 25.8749C21.7181 25.8749 19.7932 25.0915 18.2259 23.5247C16.6586 21.9579 15.875 20.0332 15.875 17.7507C15.875 15.4682 16.6584 13.5432 18.2252 11.9759C19.792 10.4087 21.7167 9.625 23.9992 9.625C26.2817 9.625 28.2066 10.4084 29.7739 11.9752C31.3412 13.542 32.1249 15.4667 32.1249 17.7492C32.1249 20.0317 31.3415 21.9566 29.7747 23.5239C28.2079 25.0912 26.2832 25.8749 24.0007 25.8749ZM23.9999 47.7499C20.7019 47.7499 17.6081 47.1297 14.7188 45.8893C11.8293 44.6489 9.31571 42.9598 7.17788 40.822C5.04008 38.6842 3.351 36.1705 2.11063 33.2811C0.870208 30.3918 0.25 27.298 0.25 23.9999C0.25 20.7019 0.870208 17.6081 2.11063 14.7188C3.351 11.8293 5.04008 9.31571 7.17788 7.17788C9.31571 5.04008 11.8293 3.351 14.7188 2.11063C17.6081 0.87021 20.7019 0.25 23.9999 0.25C27.298 0.25 30.3918 0.87021 33.2811 2.11063C36.1705 3.351 38.6842 5.04008 40.822 7.17788C42.9598 9.31571 44.6489 11.8293 45.8893 14.7188C47.1297 17.6081 47.7499 20.7019 47.7499 23.9999C47.7499 27.298 47.1297 30.3918 45.8893 33.2811C44.6489 36.1705 42.9598 38.6842 40.822 40.822C38.6842 42.9598 36.1705 44.6489 33.2811 45.8893C30.3918 47.1297 27.298 47.7499 23.9999 47.7499ZM23.9999 43.9999C26.2564 43.9999 28.4318 43.637 30.5264 42.911C32.621 42.1851 34.4808 41.1698 36.1058 39.8653C34.4808 38.6089 32.645 37.6297 30.5985 36.9278C28.552 36.2259 26.3525 35.8749 23.9999 35.8749C21.6474 35.8749 19.4438 36.2218 17.3893 36.9158C15.3348 37.6097 13.5031 38.5929 11.8941 39.8653C13.5191 41.1698 15.3789 42.1851 17.4735 42.911C19.568 43.637 21.7435 43.9999 23.9999 43.9999ZM23.9999 22.125C25.2435 22.125 26.2836 21.7067 27.1202 20.8702C27.9567 20.0336 28.375 18.9935 28.375 17.7499C28.375 16.5064 27.9567 15.4663 27.1202 14.6297C26.2836 13.7931 25.2435 13.3749 23.9999 13.3749C22.7564 13.3749 21.7163 13.7931 20.8797 14.6297C20.0431 15.4663 19.6249 16.5064 19.6249 17.7499C19.6249 18.9935 20.0431 20.0336 20.8797 20.8702C21.7163 21.7067 22.7564 22.125 23.9999 22.125Z" fill="#33189F"/>
</svg>
