<svg width="53" height="50" viewBox="0 0 53 50" fill="none" xmlns="http://www.w3.org/2000/svg">
<path d="M26.25 18.125V30.625" stroke="#C7413A" stroke-width="3" stroke-linecap="round" stroke-linejoin="round"/>
<path d="M22.3625 5.94774L3.10923 38.1656C2.71233 38.8544 2.50229 39.6355 2.50002 40.4309C2.49775 41.2264 2.70331 42.0086 3.09627 42.6998C3.48924 43.3909 4.0559 43.9669 4.73989 44.3705C5.42389 44.774 6.20138 44.9911 6.99504 45H45.5063C46.2996 44.9908 47.0767 44.7737 47.7604 44.3703C48.4441 43.9669 49.0105 43.3912 49.4034 42.7004C49.7963 42.0096 50.002 41.2278 50 40.4327C49.998 39.6375 49.7885 38.8568 49.3921 38.1679L30.1389 5.94535C29.7338 5.27525 29.1631 4.72116 28.4821 4.3366C27.801 3.95204 27.0324 3.75 26.2507 3.75C25.4689 3.75 24.7004 3.95204 24.0193 4.3366C23.3382 4.72116 22.7676 5.27525 22.3625 5.94535V5.94774Z" stroke="#C7413A" stroke-width="3" stroke-linecap="round" stroke-linejoin="round"/>
<circle cx="26.25" cy="36.25" r="1.875" fill="#C7413A"/>
</svg>
