<svg width="16" height="20" viewBox="0 0 16 20" fill="none" xmlns="http://www.w3.org/2000/svg">
<path d="M2 15.1H2.1V15V8C2.1 6.63844 2.50954 5.43091 3.32903 4.37377C4.14848 3.31669 5.21242 2.62497 6.52425 2.29701L6.6 2.27808V2.2V1.5C6.6 1.10955 6.73551 0.780911 7.00821 0.508211C7.28091 0.235511 7.60955 0.1 8 0.1C8.39045 0.1 8.71909 0.235511 8.99179 0.508211C9.26449 0.780911 9.4 1.10955 9.4 1.5V2.2V2.27808L9.47575 2.29701C10.7876 2.62497 11.8515 3.31669 12.671 4.37377C13.4905 5.43091 13.9 6.63844 13.9 8V15V15.1H14H15C15.2582 15.1 15.4698 15.1862 15.6418 15.3582C15.8138 15.5302 15.9 15.7418 15.9 16C15.9 16.2582 15.8138 16.4698 15.6418 16.6418C15.4698 16.8138 15.2582 16.9 15 16.9H1C0.74185 16.9 0.530198 16.8138 0.358211 16.6418C0.186223 16.4698 0.1 16.2582 0.1 16C0.1 15.7418 0.186223 15.5302 0.358211 15.3582C0.530198 15.1862 0.74185 15.1 1 15.1H2ZM3.9 15V15.1H4H12H12.1V15V8C12.1 6.87327 11.6976 5.90623 10.8957 5.10429C10.0938 4.30235 9.12673 3.9 8 3.9C6.87327 3.9 5.90623 4.30235 5.10429 5.10429C4.30235 5.90623 3.9 6.87327 3.9 8V15ZM8 19.9C7.47673 19.9 7.03127 19.7149 6.65821 19.3418C6.30914 18.9927 6.12459 18.5803 6.1023 18.1H9.8977C9.87541 18.5803 9.69086 18.9927 9.34179 19.3418C8.96873 19.7149 8.52327 19.9 8 19.9Z" fill="#6C6969" stroke="white" stroke-width="0.2"/>
</svg>
