<svg width="24" height="24" viewBox="0 0 24 24" fill="none" xmlns="http://www.w3.org/2000/svg">
<g clip-path="url(#clip0_1228_21398)">
<path d="M20.5638 12.6496L12.1324 21L8.87681 17.7758M2.00018 8.66546C1.99078 7.47985 2.35653 6.32163 3.04513 5.35644C3.73372 4.39124 4.70989 3.66851 5.83403 3.29159C6.95817 2.91467 8.17271 2.90288 9.30396 3.25789C10.4352 3.6129 11.4252 4.31654 12.1324 5.26818C12.5973 4.6499 13.1848 4.13424 13.8582 3.75346C14.5315 3.37268 15.2762 3.13498 16.0456 3.05525C16.8151 2.97551 17.5927 3.05545 18.3298 3.29006C19.0669 3.52467 19.7477 3.9089 20.3295 4.4187C20.9113 4.92851 21.3816 5.55292 21.711 6.25284C22.0403 6.95277 22.2217 7.71315 22.2437 8.48639C22.2657 9.25963 22.1278 10.0291 21.8388 10.7466C21.5497 11.4641 21.1157 12.1143 20.5638 12.6563" stroke="#202020" stroke-width="1.5" stroke-linecap="round" stroke-linejoin="round"/>
<path d="M2 12.5H4.33333L6.66667 16L9 9L10.1667 12.5H13.6667" stroke="#202020" stroke-width="1.5" stroke-linecap="round" stroke-linejoin="round"/>
</g>
<defs>
<clipPath id="clip0_1228_21398">
<rect width="24" height="24" fill="white"/>
</clipPath>
</defs>
</svg>
