<svg width="24" height="24" viewBox="0 0 24 24" fill="none" xmlns="http://www.w3.org/2000/svg">
<g clip-path="url(#clip0_1228_19639)">
<path d="M20.5502 12.6495L12.1187 21L3.68724 12.6495C3.1311 12.1083 2.69304 11.4578 2.40064 10.739C2.10825 10.0202 1.96784 9.2487 1.98828 8.47298C2.00871 7.69726 2.18954 6.93418 2.51937 6.23178C2.8492 5.52938 3.3209 4.90289 3.90475 4.39174C4.48861 3.8806 5.17197 3.49588 5.91181 3.26181C6.65166 3.02775 7.43195 2.9494 8.20356 3.03171C8.97516 3.11402 9.72137 3.35521 10.3952 3.74008C11.069 4.12494 11.6558 4.64516 12.1187 5.26797C12.5836 4.64968 13.1711 4.13401 13.8445 3.75323C14.5178 3.37244 15.2625 3.13474 16.032 3.055C16.8014 2.97527 17.579 3.0552 18.3162 3.28982C19.0533 3.52443 19.7341 3.90867 20.3159 4.41848C20.8977 4.92829 21.368 5.55271 21.6974 6.25264C22.0268 6.95258 22.2081 7.71297 22.2301 8.48622C22.2521 9.25947 22.1143 10.0289 21.8252 10.7465C21.5361 11.464 21.1021 12.1141 20.5502 12.6562" fill="#33189F"/>
<path d="M20.5502 12.6495L12.1187 21L3.68724 12.6495C3.1311 12.1083 2.69304 11.4578 2.40064 10.739C2.10825 10.0202 1.96784 9.2487 1.98828 8.47298C2.00871 7.69726 2.18954 6.93418 2.51937 6.23178C2.8492 5.52938 3.3209 4.90289 3.90475 4.39174C4.48861 3.8806 5.17197 3.49588 5.91181 3.26181C6.65166 3.02775 7.43195 2.9494 8.20356 3.03171C8.97516 3.11402 9.72137 3.35521 10.3952 3.74008C11.069 4.12494 11.6558 4.64516 12.1187 5.26797C12.5836 4.64968 13.1711 4.13401 13.8445 3.75323C14.5178 3.37244 15.2625 3.13474 16.032 3.055C16.8014 2.97527 17.579 3.0552 18.3162 3.28982C19.0533 3.52443 19.7341 3.90867 20.3159 4.41848C20.8977 4.92829 21.368 5.55271 21.6974 6.25264C22.0268 6.95258 22.2081 7.71297 22.2301 8.48622C22.2521 9.25947 22.1143 10.0289 21.8252 10.7465C21.5361 11.464 21.1021 12.1141 20.5502 12.6562" stroke="#33189F" stroke-width="1.5" stroke-linecap="round" stroke-linejoin="round"/>
<path d="M2 13.5H4.33333L6.66667 17L9 10L10.1667 13.5H13.6667" stroke="white" stroke-width="2.5" stroke-linecap="round" stroke-linejoin="round"/>
<path d="M2 13.5H4.33333L6.66667 17L9 10L10.1667 13.5H13.6667" stroke="#33189F" stroke-linecap="round" stroke-linejoin="round"/>
</g>
<defs>
<clipPath id="clip0_1228_19639">
<rect width="24" height="24" fill="white"/>
</clipPath>
</defs>
</svg>
